<?xml version="1.0" standalone="no"?><!DOCTYPE svg PUBLIC "-//W3C//DTD SVG 1.1//EN" "http://www.w3.org/Graphics/SVG/1.1/DTD/svg11.dtd"><svg t="1620632597570" class="icon" viewBox="0 0 1024 1024" version="1.1" xmlns="http://www.w3.org/2000/svg" p-id="3512" xmlns:xlink="http://www.w3.org/1999/xlink" width="200" height="200"><defs><style type="text/css"></style></defs><path d="M626.7 595.5c87.1-42.7 147.2-131.9 147.2-235.4 0-144.9-117.4-262.3-262.2-262.3S249.4 215.1 249.4 360c0 103.6 60.2 193 147.5 235.6-147.4 45.1-257.7 174.6-275.3 332.1h781C884.9 770 774.4 640.4 626.7 595.5zM386.9 462c-8.6-8.5-8.6-22.2 0-30.6 8.6-8.5 22.5-8.5 31.1 0 51.6 50.8 135.2 50.8 186.8 0 8.6-8.5 22.6-8.5 31.1 0 8.6 8.5 8.6 22.2 0 30.6-68.7 67.8-180.2 67.8-249 0z" p-id="3513"></path></svg>