<?xml version="1.0" standalone="no"?><!DOCTYPE svg PUBLIC "-//W3C//DTD SVG 1.1//EN" "http://www.w3.org/Graphics/SVG/1.1/DTD/svg11.dtd"><svg t="1620632604869" class="icon" viewBox="0 0 1024 1024" version="1.1" xmlns="http://www.w3.org/2000/svg" p-id="3777" xmlns:xlink="http://www.w3.org/1999/xlink" width="200" height="200"><defs><style type="text/css"></style></defs><path d="M351.690386 831.792397c-35.414581 0-63.956637 28.541033-63.956637 63.958684 0 35.415604 28.542056 63.958684 63.956637 63.958684 35.423791 0 63.959707-28.54308 63.959707-63.958684C415.650093 860.33343 387.114177 831.792397 351.690386 831.792397L351.690386 831.792397 351.690386 831.792397zM351.690386 831.792397" p-id="3778"></path><path d="M799.576159 831.792397c-35.416628 0-63.958684 28.541033-63.958684 63.958684 0 35.415604 28.542056 63.958684 63.958684 63.958684 35.418674 0 63.958684-28.54308 63.958684-63.958684C863.534843 860.33343 834.823941 831.792397 799.576159 831.792397L799.576159 831.792397 799.576159 831.792397zM799.576159 831.792397" p-id="3779"></path><path d="M935.747515 188.767248c-16.33606-18.564821-38.85903-28.54001-63.272046-28.54001L231.687268 160.227238l-2.234901-13.065574c-5.675256-46.593178-46.594201-82.871429-93.187379-82.871429l-40.406269 0c-17.706267 0-31.977295 14.271028-31.977295 31.977295 0 17.711384 14.271028 31.982412 31.977295 31.982412l40.234353 0c13.922081 0 28.193109 12.722766 29.916357 28.194132l30.948873 178.467671 54.327326 381.855918c5.676279 46.596248 46.076408 83.041298 92.329848 83.041298l519.919367 0c17.706267 0 31.976272-14.265912 31.976272-31.976272s-14.270005-31.982412-31.976272-31.982412L343.443561 735.850278c-13.58746 0-26.994818-12.547781-28.885887-27.505447l-5.330402-37.310767 507.367493-31.28861c46.080501 0 86.653569-36.453237 91.988064-81.32112l50.717102-288.159956C962.909132 239.489466 954.488345 209.744002 935.747515 188.767248L935.747515 188.767248zM935.747515 188.767248" p-id="3780"></path></svg>